<?xml version="1.0" encoding="UTF-8"?><svg xmlns="http://www.w3.org/2000/svg" viewBox="0 0 512 512"><g id="a"/><g id="b"><path d="M435.27,93.13c-16.29-15.69-25.02-14.68-34.59-7.63-9.09,6.7-115.58,110.64-123.02,117.92-.06,.05-.11,.1-.16,.15-.04,.03-.07,.06-.1,.09-53.67,47.65-118.71,79.03-193.3,93.27-10.35,1.98-19.57,9.27-23.5,18.59-3.29,7.8-2.44,16.15,2.42,23.49,19.26,29.2,38.01,62.28,50.96,86.1-8.53,.56-17.05,1.3-25.56,2.28,27.54,3.17,55.15,3.9,82.81,4,27.66-.09,55.27-.81,82.81-4-7.5-.87-15.01-1.55-22.52-2.09,12.67-8.62,25.61-17.92,38.57-27.72,62.14-46.91,93.11-88.36,93.41-88.78l1.47-1.98-.14-.16-.16-.18c-3.84-4.5-43.82-51.5-48.43-67.97h0c-1.06-.43-2.1-.88-3.13-1.37-.12-.05-.24-.11-.35-.17-.85-.39-1.68-.82-2.5-1.27-2.23-1.17-4.38-2.5-6.43-3.96h-.01c-5.94-4.2-11.04-9.48-14.75-15.69-.01-.01-.02-.03-.03-.05-1.28-2.14-2.39-4.39-3.31-6.75,4.29,5.62,9.3,10.54,14.85,14.71,3.37,2.52,6.93,4.77,10.65,6.72,.95,.5,1.91,.98,2.88,1.43,.98,.48,1.97,.93,2.97,1.35,20.44-18.94,86.2-78.74,124.53-100.96,5.65-3.27,10.98-7.09,11.68-12.82,.84-6.95-5.41-14.4-18.02-26.55ZM100.94,344.21c-7.24,0-13.11-5.86-13.11-13.1s5.87-13.11,13.11-13.11,13.1,5.87,13.1,13.11-5.86,13.1-13.1,13.1Zm227.87-38.05c-3.18,3.44-6.39,6.87-9.63,10.27-3.23,3.4-6.41,6.86-9.8,10.11-5.86,5.77-14.35,14.04-20.44,19.38-3.02,2.71-7.45,6.83-10.53,9.36-29.69,25.38-61.48,48.72-95.42,68.2-.53,.3-1.07,.61-1.6,.91-1.77,1.01-3.55,2.01-5.34,3h-2.91c1.65-.99,3.29-1.99,4.93-3,.51-.31,1.02-.63,1.53-.95,53.96-33.24,103.78-73.12,149.21-117.28Zm-9.94-99.8c-4.35,0-7.88-3.53-7.88-7.88s3.53-7.88,7.88-7.88,7.87,3.53,7.87,7.88-3.52,7.88-7.87,7.88Zm46.22-41.54c-4.35,0-7.88-3.53-7.88-7.88s3.53-7.87,7.88-7.87,7.87,3.52,7.87,7.87-3.52,7.88-7.87,7.88Zm48.26-40.86c-4.35,0-7.88-3.53-7.88-7.88s3.53-7.87,7.88-7.87,7.87,3.52,7.87,7.87-3.52,7.88-7.87,7.88Z" fill="#15161c"/></g></svg>